<svg width="112" height="113" viewBox="0 0 112 113" fill="none" xmlns="http://www.w3.org/2000/svg" id='avatar-placeholder'>
<rect y="0.5" width="112" height="112" rx="56" fill="url(#paint0_linear_4010_7417)"/>
<path d="M56.0003 13.1667C32.0803 13.1667 12.667 32.5801 12.667 56.5001C12.667 80.4201 32.0803 99.8334 56.0003 99.8334C79.9203 99.8334 99.3337 80.4201 99.3337 56.5001C99.3337 32.5801 79.9203 13.1667 56.0003 13.1667ZM35.8503 84.6667C41.527 80.5934 48.4603 78.1667 56.0003 78.1667C63.5403 78.1667 70.4737 80.5934 76.1503 84.6667C70.4737 88.7401 63.5403 91.1667 56.0003 91.1667C48.4603 91.1667 41.527 88.7401 35.8503 84.6667ZM82.607 78.6868C75.2837 72.9668 66.0537 69.5001 56.0003 69.5001C45.947 69.5001 36.717 72.9668 29.3937 78.6868C24.367 72.6634 21.3337 64.9501 21.3337 56.5001C21.3337 37.3467 36.847 21.8334 56.0003 21.8334C75.1537 21.8334 90.667 37.3467 90.667 56.5001C90.667 64.9501 87.6337 72.6634 82.607 78.6868Z" fill="black"/>
<path d="M56.0003 30.5001C47.637 30.5001 40.8337 37.3034 40.8337 45.6667C40.8337 54.0301 47.637 60.8334 56.0003 60.8334C64.3637 60.8334 71.167 54.0301 71.167 45.6667C71.167 37.3034 64.3637 30.5001 56.0003 30.5001ZM56.0003 52.1667C52.4037 52.1667 49.5003 49.2634 49.5003 45.6667C49.5003 42.0701 52.4037 39.1667 56.0003 39.1667C59.597 39.1667 62.5003 42.0701 62.5003 45.6667C62.5003 49.2634 59.597 52.1667 56.0003 52.1667Z" fill="black"/>
<defs>
<linearGradient id="paint0_linear_4010_7417" x1="112" y1="0.500013" x2="1.33514e-05" y2="112.5" gradientUnits="userSpaceOnUse">
<stop stop-color="#AE7AFF"/>
<stop offset="1" stop-color="#6686FF"/>
</linearGradient>
</defs>
</svg>
