<svg width="17" height="16" viewBox="0 0 17 16" fill="none" xmlns="http://www.w3.org/2000/svg" id="comment">
<path d="M11.8438 8C11.8438 8.1875 11.7708 8.34375 11.625 8.46875C11.5 8.59375 11.3438 8.65625 11.1562 8.65625H4.5L1.84375 11.3438V2C1.84375 1.8125 1.90625 1.65625 2.03125 1.53125C2.15625 1.40625 2.3125 1.34375 2.5 1.34375H11.1562C11.3438 1.34375 11.5 1.40625 11.625 1.53125C11.7708 1.65625 11.8438 1.8125 11.8438 2V8ZM14.5 4C14.6875 4 14.8438 4.0625 14.9688 4.1875C15.0938 4.3125 15.1562 4.46875 15.1562 4.65625V14.6562L12.5 12H5.15625C4.96875 12 4.8125 11.9375 4.6875 11.8125C4.5625 11.6875 4.5 11.5312 4.5 11.3438V10H13.1562V4H14.5Z" fill="currentColor"/>
</svg>
