<svg width="14" height="14" viewBox="0 0 14 14" fill="none" xmlns="http://www.w3.org/2000/svg">
<path d="M11 4.34375V3H3V4.34375H11ZM8.34375 8.34375V7H3V8.34375H8.34375ZM3 5V6.34375H11V5H3ZM12.3438 0.34375C12.6979 0.34375 13 0.479167 13.25 0.75C13.5208 1 13.6562 1.30208 13.6562 1.65625V9.65625C13.6562 10.0104 13.5208 10.3229 13.25 10.5938C13 10.8646 12.6979 11 12.3438 11H3L0.34375 13.6562V1.65625C0.34375 1.30208 0.46875 1 0.71875 0.75C0.989583 0.479167 1.30208 0.34375 1.65625 0.34375H12.3438Z" fill="currentColor"/>
</svg>
